Coordinates
version=1
nRows=12
nColumns=24
inDegrees=yes

Units are S.I. units (second, meters, Newtons, ...)
Angles are in degrees.

endheader
time	pelvis_tilt	pelvis_list	pelvis_rotation	pelvis_tx	pelvis_ty	pelvis_tz	hip_flexion_r	hip_adduction_r	hip_rotation_r	knee_angle_r	ankle_angle_r	subtalar_angle_r	mtp_angle_r	hip_flexion_l	hip_adduction_l	hip_rotation_l	knee_angle_l	ankle_angle_l	subtalar_angle_l	mtp_angle_l	lumbar_extension	lumbar_bending	lumbar_rotation
      0.49500000	     -2.84458667	      3.97536508	      2.46728673	     -0.71364047	      0.97971074	      0.28677630	     30.37124739	     -2.75426154	     -3.10664494	    -13.85551025	      5.40941837	     -5.61041901	      0.74364262	    -12.63517555	      7.59565309	      4.23304947	     -4.72421159	      9.88501105	     -6.74403957	      0.02497899	     -1.27420761	     -1.58759560	     -1.41918506
      0.49916667	     -2.90575904	      4.00528342	      2.51763744	     -0.70767423	      0.97912496	      0.28707093	     30.31476402	     -2.75761727	     -3.15291784	    -13.84384354	      5.17413547	     -5.79682936	      6.20856861	    -12.56387273	      7.58817084	      4.13981349	     -5.45015689	     10.03262185	     -6.43381843	     -0.99578482	     -1.15351342	     -1.63135549	     -1.39996825
      0.50333333	     -2.93845930	      4.01502507	      2.57725780	     -0.70165728	      0.97863284	      0.28732748	     30.21754987	     -2.74910808	     -3.23487026	    -13.89595943	      5.00804420	     -5.68948132	      6.22814738	    -12.52331652	      7.56065167	      4.13085978	     -6.17537522	     10.09602914	     -6.27883542	     -0.96234092	     -1.07039089	     -1.62800732	     -1.50495809
      0.50750000	     -2.99365430	      4.03015858	      2.62621078	     -0.69562351	      0.97813445	      0.28761510	     30.15233771	     -2.73784105	     -3.28553545	    -14.02466078	      4.80682963	     -5.70447208	      6.25254512	    -12.42313346	      7.54205436	      4.09099553	     -6.96936531	     10.16004972	     -6.11866162	     -0.91372798	     -0.95613730	     -1.63809163	     -1.55221207
      0.51166667	     -3.03883766	      4.03446669	      2.65356875	     -0.68954047	      0.97767788	      0.28796954	     30.06420628	     -2.69665109	     -3.28163581	    -14.18639355	      4.63384665	     -5.78261102	      6.32888146	    -12.28125502	      7.50601816	      3.89951575	     -7.85525291	     10.21568427	     -5.76828501	     -0.76940699	     -0.83462447	     -1.64377265	     -1.62688992
      0.51583333	     -3.09975438	      4.02398948	      2.70079996	     -0.68344654	      0.97725092	      0.28829861	     29.98016652	     -2.64924097	     -3.27841531	    -14.37466358	      4.37242714	     -5.93509654	      6.45446650	    -12.09865847	      7.45489883	      3.79366410	     -8.79358611	     10.26325404	     -5.49627688	     -0.51396101	     -0.70271153	     -1.63314182	     -1.65333166
      0.52000000	     -3.12925071	      4.01621009	      2.73324210	     -0.67731706	      0.97691348	      0.28860594	     29.86886403	     -2.60741681	     -3.30916499	    -14.61303577	      4.00494548	     -5.98367763	      6.48928522	    -11.95514751	      7.41783718	      3.76792558	     -9.71167976	     10.16689902	     -5.43843975	     -0.42684619	     -0.60695024	     -1.60515176	     -1.64942348
      0.52416667	     -3.20236426	      3.98885381	      2.75227987	     -0.67116949	      0.97653412	      0.28901643	     29.79140370	     -2.52179803	     -3.23818144	    -14.86981907	      3.75342023	     -6.20879634	      6.61610944	    -11.67537378	      7.34476435	      3.52490343	    -10.79879101	     10.15765956	     -5.04043362	     -0.11865946	     -0.44336700	     -1.57584648	     -1.69245501
      0.52833333	     -3.27573243	      3.96627334	      2.77297846	     -0.66502354	      0.97618682	      0.28940070	     29.71815572	     -2.44870209	     -3.18465932	    -15.15820348	      3.39372770	     -6.40942310	      6.75001023	    -11.37681654	      7.28335279	      3.36211776	    -11.91721617	     10.06583776	     -4.79648467	      0.24424553	     -0.28456447	     -1.54630254	     -1.68295656
      0.53250000	     -3.33084109	      3.93191096	      2.78841709	     -0.65885203	      0.97590765	      0.28980243	     29.61982579	     -2.36085272	     -3.13059160	    -15.46491008	      3.01972553	     -6.63467195	      6.89476812	    -11.06375489	      7.20590611	      3.18159926	    -13.09262994	      9.93166442	     -4.54252219	      0.68683339	     -0.14599647	     -1.50145535	     -1.66473716
      0.53666667	     -3.38207315	      3.89399192	      2.81847345	     -0.65265943	      0.97568963	      0.29013264	     29.52161652	     -2.29247493	     -3.15755951	    -15.80124817	      2.55613653	     -6.73429745	      6.94131250	    -10.74744540	      7.13527732	      3.11910102	    -14.27307351	      9.64902786	     -4.47440053	      0.86613610	     -0.01738147	     -1.43499425	     -1.61522411
      0.54083333	     -3.43792381	      3.82792219	      2.80815255	     -0.64648326	      0.97546823	      0.29064235	     29.40717182	     -2.14440991	     -2.99584670	    -16.10991672	      2.22593408	     -7.23204767	      8.27588800	    -10.33756246	      7.01066042	      2.82838332	    -15.60016632	      9.33886594	     -4.25280152	      5.99964952	      0.13316526	     -1.36437078	     -1.54749883
